<?xml version="1.0" encoding="utf-8"?>
<!-- Generator: Adobe Illustrator 22.1.0, SVG Export Plug-In . SVG Version: 6.00 Build 0)  -->
<svg version="1.1" id="Layer_1" xmlns="http://www.w3.org/2000/svg" xmlns:xlink="http://www.w3.org/1999/xlink" x="0px" y="0px"
	 viewBox="0 0 28.5 62.8" style="enable-background:new 0 0 28.5 62.8;" xml:space="preserve">
<style type="text/css">
	.st0{fill:#FC5C9C;}
</style>
<g>
	<g>
		<path class="st0" d="M11.4,50.9c0,0-0.8-0.2-2.4-0.6c-1.6-0.4-3.1-1.1-4.5-1.9c-1.4-0.8-2.7-1.9-4-3.1L4.3,41
			c1.3,1.5,2.8,2.7,4.5,3.5s3.4,1.2,5.4,1.2c2.7,0,4.7-0.4,6-1.4c1.3-1,2-2.4,2-4.4l0,0c0-1.3-0.3-2.3-0.9-3
			c-0.6-0.8-1.4-1.3-2.5-1.7c-1-0.4-2.3-0.7-3.9-1c-0.1,0-0.1,0-0.2,0c-0.1,0-0.1,0-0.2,0c-0.1,0-0.2,0-0.3-0.1c-0.1,0-0.2,0-0.3,0
			c-2.5-0.5-4.6-0.9-6.1-1.5c-1.6-0.6-2.9-1.6-4-3c-1.2-1.4-1.7-3.5-1.7-6.1l0,0c0-2.6,0.5-4.7,1.5-6.4c1-1.7,2.5-2.9,4.5-3.8
			c2-0.8,4.5-1.2,7.5-1.2c1.3,0,2.6,0.2,3.9,0.4c1.3,0.3,2.6,0.7,3.9,1.2c1.2,0.5,2.5,1.2,3.7,2l-3.5,4.4c-1.4-0.9-2.7-1.5-4.1-2
			c-1.3-0.4-2.6-0.7-3.9-0.7c-2.5,0-4.3,0.4-5.6,1.4c-1.3,0.9-1.9,2.3-1.9,4.3l0,0c0,1.3,0.3,2.4,1,3.1c0.7,0.8,1.6,1.3,2.7,1.7
			c1.1,0.3,2.5,0.7,4.4,1.1c0.1,0,0.2,0,0.2,0c0.1,0,0.2,0,0.3,0.1c0.1,0,0.2,0,0.3,0.1s0.2,0,0.3,0.1c2.2,0.5,4.1,1.1,5.6,1.7
			c1.5,0.7,2.7,1.7,3.7,3.2c1,1.5,1.5,3.4,1.5,6l0,0.1c0,2.5-0.6,4.5-1.6,6.2c-1,1.6-2.6,2.9-4.7,3.7c-2.1,0.8-4.6,1.2-7.7,1.1
			C12.3,50.9,11.4,50.9,11.4,50.9z M11.8,48.9l5.7,0l0,6.3l-5.7,0L11.8,48.9z M12.1,7.6l5.7,0l0,6l-5.7,0L12.1,7.6z"/>
	</g>
</g>
</svg>
